<svg width="160" height="40" viewBox="0 0 160 40" fill="none" xmlns="http://www.w3.org/2000/svg">
  <rect width="160" height="40" rx="6" fill="#F5F5F5"/>
  <path d="M37.6 28V13.6H45.64V15.84H40.04V19.32H44.8V21.56H40.04V25.76H45.64V28H37.6ZM55.395 28H52.795L49.235 22.28H48.955V28H46.515V13.6H50.755C53.555 13.6 55.235 15.12 55.235 17.92C55.235 20.1067 54.1816 21.4 52.315 21.88L55.395 28ZM48.955 20.32H50.475C51.8283 20.32 52.715 19.48 52.715 17.96C52.715 16.4933 51.8283 15.68 50.475 15.68H48.955V20.32ZM65.649 28H62.729L58.689 13.6H61.489L64.189 24.6H64.229L66.889 13.6H69.649L65.649 28ZM79.2285 28H76.6285L73.0685 22.28H72.7885V28H70.3485V13.6H74.5885C77.3885 13.6 79.0685 15.12 79.0685 17.92C79.0685 20.1067 78.0152 21.4 76.1485 21.88L79.2285 28ZM72.7885 20.32H74.3085C75.6619 20.32 76.5485 19.48 76.5485 17.96C76.5485 16.4933 75.6619 15.68 74.3085 15.68H72.7885V20.32ZM81.0375 28V13.6H83.4775V25.76H89.3175V28H81.0375ZM100.54 28H97.54L94.34 22.96L92.34 25.32V28H89.9V13.6H92.34V22.12L97.22 16.08H100.753L96.22 21.76L100.54 28Z" fill="#666666"/>
</svg> 