<svg width="160" height="40" viewBox="0 0 160 40" fill="none" xmlns="http://www.w3.org/2000/svg">
  <rect width="160" height="40" rx="6" fill="#F5F5F5"/>
  <path d="M28.28 28V25.76H29.8V15.84H28.28V13.6H33.76V15.84H32.24V25.76H33.76V28H28.28ZM43.1675 28H40.5675L37.0075 22.28H36.7275V28H34.2875V13.6H38.5275C41.3275 13.6 43.0075 15.12 43.0075 17.92C43.0075 20.1067 41.9542 21.4 40.0875 21.88L43.1675 28ZM36.7275 20.32H38.2475C39.6008 20.32 40.4875 19.48 40.4875 17.96C40.4875 16.4933 39.6008 15.68 38.2475 15.68H36.7275V20.32ZM52.7508 28H49.8308L45.7908 13.6H48.5908L51.2908 24.6H51.3308L53.9908 13.6H56.7508L52.7508 28ZM66.3303 28H63.7303L60.1703 22.28H59.8903V28H57.4503V13.6H61.6903C64.4903 13.6 66.1703 15.12 66.1703 17.92C66.1703 20.1067 65.117 21.4 63.2503 21.88L66.3303 28ZM59.8903 20.32H61.4103C62.7637 20.32 63.6503 19.48 63.6503 17.96C63.6503 16.4933 62.7637 15.68 61.4103 15.68H59.8903V20.32ZM76.1337 28H68.0937V13.6H76.0937V15.84H70.5337V19.32H75.4937V21.56H70.5337V25.76H76.1337V28ZM85.2666 28H82.3466L78.3066 13.6H81.1066L83.8066 24.6H83.8466L86.5066 13.6H89.2666L85.2666 28ZM90.2456 28V13.6H97.6456V15.84H92.6856V19.32H96.9256V21.56H92.6856V25.76H97.6456V28H90.2456ZM106.774 28H104.134L100.574 22.28H100.294V28H97.8536V13.6H102.094C104.894 13.6 106.574 15.12 106.574 17.92C106.574 20.1067 105.52 21.4 103.654 21.88L106.774 28ZM100.294 20.32H101.814C103.167 20.32 104.054 19.48 104.054 17.96C104.054 16.4933 103.167 15.68 101.814 15.68H100.294V20.32ZM117.177 28H114.177L110.977 22.96L108.977 25.32V28H106.537V13.6H108.977V22.12L113.857 16.08H117.39L112.857 21.76L117.177 28ZM125.876 28H117.876V13.6H125.876V15.84H120.316V19.32H125.276V21.56H120.316V25.76H125.876V28Z" fill="#666666"/>
</svg> 