<svg width="160" height="40" viewBox="0 0 160 40" fill="none" xmlns="http://www.w3.org/2000/svg">
  <rect width="160" height="40" rx="6" fill="#F5F5F5"/>
  <path d="M38.64 28V25.76H40.16V15.84H38.64V13.6H44.12V15.84H42.6V25.76H44.12V28H38.64ZM53.5275 28H50.9275L47.3675 22.28H47.0875V28H44.6475V13.6H48.8875C51.6875 13.6 53.3675 15.12 53.3675 17.92C53.3675 20.1067 52.3142 21.4 50.4475 21.88L53.5275 28ZM47.0875 20.32H48.6075C49.9608 20.32 50.8475 19.48 50.8475 17.96C50.8475 16.4933 49.9608 15.68 48.6075 15.68H47.0875V20.32ZM55.0309 28V13.6H57.4709V28H55.0309ZM68.0848 28.24C64.6181 28.24 62.1915 25.7333 62.1915 21.04C62.1915 16.3467 64.6181 13.84 68.0848 13.84C71.5515 13.84 73.9781 16.3467 73.9781 21.04C73.9781 25.7333 71.5515 28.24 68.0848 28.24ZM68.0848 26C70.1248 26 71.5248 24.2 71.5248 21.04C71.5248 17.88 70.1248 16.08 68.0848 16.08C66.0448 16.08 64.6448 17.88 64.6448 21.04C64.6448 24.2 66.0448 26 68.0848 26ZM76.0862 28V13.6H78.5262V19.32H84.1662V13.6H86.6063V28H84.1662V21.56H78.5262V28H76.0862ZM98.1431 28H95.1431L91.9431 22.96L89.9431 25.32V28H87.5031V13.6H89.9431V22.12L94.8231 16.08H98.3565L93.8231 21.76L98.1431 28ZM107.042 28H99.0416V13.6H107.042V15.84H101.482V19.32H106.442V21.56H101.482V25.76H107.042V28Z" fill="#666666"/>
</svg> 