<svg width="160" height="40" viewBox="0 0 160 40" fill="none" xmlns="http://www.w3.org/2000/svg">
  <rect width="160" height="40" rx="6" fill="#F5F5F5"/>
  <path d="M33.14 28V13.6H41.18V15.84H35.58V19.32H40.34V21.56H35.58V25.76H41.18V28H33.14ZM50.9354 28H48.3354L44.7754 22.28H44.4954V28H42.0554V13.6H46.2954C49.0954 13.6 50.7754 15.12 50.7754 17.92C50.7754 20.1067 49.722 21.4 47.8554 21.88L50.9354 28ZM44.4954 20.32H46.0154C47.3687 20.32 48.2554 19.48 48.2554 17.96C48.2554 16.4933 47.3687 15.68 46.0154 15.68H44.4954V20.32ZM61.3588 28.24C57.8921 28.24 55.4655 25.7333 55.4655 21.04C55.4655 16.3467 57.8921 13.84 61.3588 13.84C64.8255 13.84 67.2521 16.3467 67.2521 21.04C67.2521 25.7333 64.8255 28.24 61.3588 28.24ZM61.3588 26C63.3988 26 64.7988 24.2 64.7988 21.04C64.7988 17.88 63.3988 16.08 61.3588 16.08C59.3188 16.08 57.9188 17.88 57.9188 21.04C57.9188 24.2 59.3188 26 61.3588 26ZM76.3778 28.24C73.0044 28.24 70.6644 25.8 70.6644 20.8C70.6644 15.8 73.0044 13.36 76.3778 13.36H80.1378V15.6H76.3778C74.3778 15.6 73.1378 17.2 73.1378 20.8C73.1378 24.4 74.3778 26 76.3778 26H80.1378V28.24H76.3778ZM81.9512 28V13.6H84.3912V25.76H90.2312V28H81.9512ZM100.56 28H97.56L94.36 22.96L92.36 25.32V28H89.92V13.6H92.36V22.12L97.24 16.08H100.773L96.24 21.76L100.56 28ZM107.559 28H105.119V15.84H101.799V13.6H110.879V15.84H107.559V28ZM120.263 28.24C116.797 28.24 114.37 25.7333 114.37 21.04C114.37 16.3467 116.797 13.84 120.263 13.84C123.73 13.84 126.157 16.3467 126.157 21.04C126.157 25.7333 123.73 28.24 120.263 28.24ZM120.263 26C122.303 26 123.703 24.2 123.703 21.04C123.703 17.88 122.303 16.08 120.263 16.08C118.223 16.08 116.823 17.88 116.823 21.04C116.823 24.2 118.223 26 120.263 26Z" fill="#666666"/>
</svg> 