<svg width="160" height="40" viewBox="0 0 160 40" fill="none" xmlns="http://www.w3.org/2000/svg">
  <rect width="160" height="40" rx="6" fill="#F5F5F5"/>
  <path d="M35.32 28H30.64V13.6H35.32C38.6133 13.6 40.92 16.0267 40.92 20.8C40.92 25.5733 38.6133 28 35.32 28ZM35.32 15.84H33.08V25.76H35.32C37.24 25.76 38.44 24.0267 38.44 20.8C38.44 17.5733 37.24 15.84 35.32 15.84ZM50.4431 28.24C46.9764 28.24 44.5498 25.7333 44.5498 21.04C44.5498 16.3467 46.9764 13.84 50.4431 13.84C53.9098 13.84 56.3364 16.3467 56.3364 21.04C56.3364 25.7333 53.9098 28.24 50.4431 28.24ZM50.4431 26C52.4831 26 53.8831 24.2 53.8831 21.04C53.8831 17.88 52.4831 16.08 50.4431 16.08C48.4031 16.08 47.0031 17.88 47.0031 21.04C47.0031 24.2 48.4031 26 50.4431 26ZM66.3555 28.24C62.8888 28.24 60.4622 25.7333 60.4622 21.04C60.4622 16.3467 62.8888 13.84 66.3555 13.84C69.8222 13.84 72.2488 16.3467 72.2488 21.04C72.2488 25.7333 69.8222 28.24 66.3555 28.24ZM66.3555 26C68.3955 26 69.7955 24.2 69.7955 21.04C69.7955 17.88 68.3955 16.08 66.3555 16.08C64.3155 16.08 62.9155 17.88 62.9155 21.04C62.9155 24.2 64.3155 26 66.3555 26ZM74.3568 28V13.6H76.7969V28H74.3568ZM79.9109 28V13.6H82.3509V25.76H88.1909V28H79.9109ZM99.9679 28H96.6746L93.4746 22.96L91.4746 25.32V28H89.0346V13.6H91.4746V22.12L96.3546 16.08H99.8879L95.3546 21.76L99.9679 28ZM109.866 28L109.466 25.88H104.786L104.386 28H101.906L105.666 13.6H108.586L112.346 28H109.866ZM107.106 16.4L105.346 23.72H108.906L107.146 16.4H107.106ZM120.63 28H118.19V15.84H114.87V13.6H123.95V15.84H120.63V28Z" fill="#666666"/>
</svg> 